<svg id="Layer_1" enable-background="new 0 0 64 64" height="512" viewBox="0 0 64 64" width="512" xmlns="http://www.w3.org/2000/svg"><path d="m9 3h46c1.1 0 2 .9 2 2v38c0 1.1-.9 2-2 2h-46c-1.1 0-2-.9-2-2v-38c0-1.1.9-2 2-2z" fill="#20202b"/><path d="m11 7h42v34h-42z" fill="#3a3a51"/><path d="m35 38c-1.7 0-3-1.3-3-3s1.3-3 3-3h1v-3h-6v6c0 1.7-1.3 3-3 3s-3-1.3-3-3 1.3-3 3-3h1v-5h10v8c0 1.7-1.3 3-3 3zm0-4c-.6 0-1 .4-1 1s.4 1 1 1 1-.4 1-1v-1zm-8 0c-.6 0-1 .4-1 1s.4 1 1 1 1-.4 1-1v-1z" fill="#388ef4"/><path d="m40 10h2v7h-2z" fill="#0ba84e"/><path d="m41 25c-3.9 0-7-3.1-7-7 0-2.5 1.3-4.8 3.5-6.1l1 1.7c-2.4 1.4-3.2 4.4-1.8 6.8s4.4 3.2 6.8 1.8 3.2-4.4 1.8-6.8c-.4-.8-1.1-1.4-1.8-1.8l1-1.7c3.3 1.9 4.5 6.2 2.6 9.6-1.3 2.2-3.6 3.5-6.1 3.5z" fill="#0ba84e"/><path d="m21 18h2v7h-2z" fill="#e0c10e"/><path d="m25.5 23.1-1-1.7c2.4-1.4 3.2-4.4 1.8-6.8s-4.4-3.2-6.8-1.8-3.2 4.4-1.8 6.8c.4.8 1.1 1.4 1.8 1.8l-1 1.7c-3.3-1.9-4.5-6.2-2.6-9.6s6.2-4.5 9.6-2.6 4.5 6.2 2.6 9.6c-.7 1.1-1.5 1.9-2.6 2.6z" fill="#e0c10e"/><g fill="#d6d7d8"><path d="m32 62c-4 0-7.8-1.6-10.7-4.3l1.4-1.5c5.2 5 13.4 5 18.6 0l1.4 1.5c-2.9 2.8-6.7 4.3-10.7 4.3z"/><path d="m32 57c-2.9 0-5.7-1.2-7.7-3.3l1.4-1.4c3.3 3.5 8.8 3.6 12.3.3.1-.1.2-.2.3-.3l1.4 1.4c-2 2.1-4.8 3.3-7.7 3.3z"/><path d="m32 52c-1.9 0-3.6-.9-4.8-2.4l1.5-1.3c1.3 1.8 3.8 2.2 5.6.9.3-.2.6-.5.9-.9l1.5 1.3c-1.1 1.5-2.8 2.4-4.7 2.4z"/></g><path d="m11 62v-13c0-.6.3-1.2.8-1.6l.8-.6c1.5-1.1 2.4-2.9 2.4-4.8v-5.2c0-.5.2-1 .6-1.4l2.6-2.6c.5-.5.8-1.2.8-2 0-1.6-1.3-2.8-2.8-2.8-.8 0-1.5.3-2 .8l-3.8 3.8c-.8.8-2 .8-2.8 0-.4-.4-.6-.9-.6-1.4v-13.2l-1.6 1.2c-1.5 1.1-2.4 2.9-2.4 4.8v38" fill="#e8c5b8"/><path d="m53 62v-13c0-.6-.3-1.2-.8-1.6l-.8-.6c-1.5-1.1-2.4-2.9-2.4-4.8v-5.2c0-.5-.2-1-.6-1.4l-2.6-2.6c-.5-.5-.8-1.2-.8-2 0-1.6 1.3-2.8 2.8-2.8.8 0 1.5.3 2 .8l3.8 3.8c.8.8 2 .8 2.8 0 .4-.4.6-.9.6-1.4v-13.2l1.6 1.2c1.5 1.1 2.4 2.9 2.4 4.8v38" fill="#e8c5b8"/><path d="m9 3h46c1.1 0 2 .9 2 2v38c0 1.1-.9 2-2 2h-46c-1.1 0-2-.9-2-2v-38c0-1.1.9-2 2-2z" fill="#20202b"/><path d="m11 7h42v34h-42z" fill="#3a3a51"/><path d="m35 38c-1.7 0-3-1.3-3-3s1.3-3 3-3h1v-3h-6v6c0 1.7-1.3 3-3 3s-3-1.3-3-3 1.3-3 3-3h1v-5h10v8c0 1.7-1.3 3-3 3zm0-4c-.6 0-1 .4-1 1s.4 1 1 1 1-.4 1-1v-1zm-8 0c-.6 0-1 .4-1 1s.4 1 1 1 1-.4 1-1v-1z" fill="#388ef4"/><path d="m40 10h2v7h-2z" fill="#0ba84e"/><path d="m41 25c-3.9 0-7-3.1-7-7 0-2.5 1.3-4.8 3.5-6.1l1 1.7c-2.4 1.4-3.2 4.4-1.8 6.8s4.4 3.2 6.8 1.8 3.2-4.4 1.8-6.8c-.4-.8-1.1-1.4-1.8-1.8l1-1.7c3.3 1.9 4.5 6.2 2.6 9.6-1.3 2.2-3.6 3.5-6.1 3.5z" fill="#0ba84e"/><path d="m21 18h2v7h-2z" fill="#e0c10e"/><path d="m25.5 23.1-1-1.7c2.4-1.4 3.2-4.4 1.8-6.8s-4.4-3.2-6.8-1.8-3.2 4.4-1.8 6.8c.4.8 1.1 1.4 1.8 1.8l-1 1.7c-3.3-1.9-4.5-6.2-2.6-9.6s6.2-4.5 9.6-2.6 4.5 6.2 2.6 9.6c-.7 1.1-1.5 1.9-2.6 2.6z" fill="#e0c10e"/><path d="m32 62c-4 0-7.8-1.6-10.7-4.3l1.4-1.5c5.2 5 13.4 5 18.6 0l1.4 1.5c-2.9 2.8-6.7 4.3-10.7 4.3z" fill="#d6d7d8"/><path d="m32 57c-2.9 0-5.7-1.2-7.7-3.3l1.4-1.4c3.3 3.5 8.8 3.6 12.3.3.1-.1.2-.2.3-.3l1.4 1.4c-2 2.1-4.8 3.3-7.7 3.3z" fill="#d6d7d8"/><path d="m32 52c-1.9 0-3.6-.9-4.8-2.4l1.5-1.3c1.3 1.8 3.8 2.2 5.6.9.3-.2.6-.5.9-.9l1.5 1.3c-1.1 1.5-2.8 2.4-4.7 2.4z" fill="#d6d7d8"/><path d="m11 62v-13c0-.6.3-1.2.8-1.6l.8-.6c1.5-1.1 2.4-2.9 2.4-4.8v-5.2c0-.5.2-1 .6-1.4l2.6-2.6c.5-.5.8-1.2.8-2 0-1.6-1.3-2.8-2.8-2.8-.8 0-1.5.3-2 .8l-3.8 3.8c-.8.8-2 .8-2.8 0-.4-.4-.6-.9-.6-1.4v-13.2l-1.6 1.2c-1.5 1.1-2.4 2.9-2.4 4.8v38" fill="#e8c5b8"/><path d="m53 62v-13c0-.6-.3-1.2-.8-1.6l-.8-.6c-1.5-1.1-2.4-2.9-2.4-4.8v-5.2c0-.5-.2-1-.6-1.4l-2.6-2.6c-.5-.5-.8-1.2-.8-2 0-1.6 1.3-2.8 2.8-2.8.8 0 1.5.3 2 .8l3.8 3.8c.8.8 2 .8 2.8 0 .4-.4.6-.9.6-1.4v-13.2l1.6 1.2c1.5 1.1 2.4 2.9 2.4 4.8v38" fill="#e8c5b8"/><path d="m28 32h-1c-1.7 0-3 1.3-3 3s1.3 3 3 3 3-1.3 3-3v-6h6v3h-1c-1.7 0-3 1.3-3 3s1.3 3 3 3 3-1.3 3-3v-8h-10zm0 3c0 .6-.4 1-1 1s-1-.4-1-1 .4-1 1-1h1zm8 0c0 .6-.4 1-1 1s-1-.4-1-1 .4-1 1-1h1z"/><path d="m40 10h2v7h-2z"/><path d="m41 25c3.9 0 7-3.1 7-7 0-2.5-1.3-4.8-3.5-6.1l-1 1.7c2.4 1.4 3.2 4.4 1.8 6.8s-4.4 3.2-6.8 1.8-3.2-4.4-1.8-6.8c.4-.8 1.1-1.4 1.8-1.8l-1-1.7c-3.3 1.9-4.5 6.2-2.6 9.6 1.3 2.2 3.6 3.5 6.1 3.5z"/><path d="m21 18h2v7h-2z"/><path d="m18.5 23.1 1-1.7c-2.4-1.4-3.2-4.4-1.8-6.8s4.4-3.2 6.8-1.8 3.2 4.4 1.8 6.8c-.4.8-1.1 1.4-1.8 1.8l1 1.7c3.3-1.9 4.5-6.2 2.6-9.6s-6.2-4.5-9.6-2.6-4.5 6.2-2.6 9.6c.7 1.1 1.5 1.9 2.6 2.6z"/><path d="m21.3 57.7c6 5.7 15.4 5.7 21.4 0l-1.4-1.5c-5.2 5-13.4 5-18.6 0z"/><path d="m24.3 53.7c4.1 4.3 10.8 4.4 15.1.4l.4-.4-1.4-1.4c-3.3 3.5-8.8 3.6-12.3.3-.1-.1-.2-.2-.3-.3z"/><path d="m36.8 49.6-1.5-1.3c-1.3 1.8-3.8 2.2-5.6.9-.3-.2-.6-.5-.9-.9l-1.5 1.3c2 2.6 5.8 3.1 8.4 1.1.4-.3.7-.6 1.1-1.1z"/><path d="m59.2 18.4-1.2-.9v-12.5c0-1.7-1.3-3-3-3h-46c-1.7 0-3 1.3-3 3v12.5l-1.2.9c-1.8 1.3-2.8 3.4-2.8 5.6v38h2v-38c0-1.6.7-3.1 2-4v11.2c0 1.7 1.3 3 3 3 .8 0 1.6-.3 2.1-.9l3.8-3.8c.7-.7 1.9-.7 2.6 0s.7 1.9 0 2.6l-2.6 2.6c-.6.6-.9 1.3-.9 2.1v5.2c0 1.6-.7 3.1-2 4l-.8.6c-.8.6-1.2 1.5-1.2 2.4v13h2v-13c0-.3.1-.6.4-.8l.8-.6c.6-.4 1.1-1 1.5-1.6h34.5c.4.6.9 1.2 1.5 1.6l.8.6c.3.2.4.5.4.8v13h2v-13c0-.9-.4-1.8-1.2-2.4l-.7-.6c-1.3-.9-2-2.4-2-4v-5.2c0-.8-.3-1.6-.9-2.1l-2.6-2.6c-.7-.7-.7-1.9 0-2.6s1.9-.7 2.6 0l3.8 3.8c1.2 1.2 3.1 1.2 4.2 0 .6-.6.9-1.3.9-2.1v-11.2c1.3.9 2 2.4 2 4v38h2v-38c0-2.2-1-4.3-2.8-5.6zm-43.5 25.6c.2-.6.3-1.3.3-2h32c0 .7.1 1.4.3 2zm36.3-14.4-1.5-1.5c-1.5-1.5-3.9-1.5-5.4 0s-1.5 3.9 0 5.4l2.6 2.6c.2.2.3.4.3.7v3.2h-32v-3.2c0-.3.1-.5.3-.7l2.6-2.6c1.5-1.5 1.5-3.9 0-5.4s-3.9-1.5-5.4 0l-1.5 1.5v-21.6h40zm4 1.6c0 .6-.4 1-1 1-.3 0-.5-.1-.7-.3l-.3-.3v-25.6h-44v25.6l-.3.3c-.4.4-1 .4-1.4 0-.2-.2-.3-.5-.3-.7v-26.2c0-.6.4-1 1-1h46c.6 0 1 .4 1 1z"/></svg>