<?xml version="1.0" encoding="iso-8859-1"?>
<!-- Generator: Adobe Illustrator 19.0.0, SVG Export Plug-In . SVG Version: 6.00 Build 0)  -->
<svg version="1.1" id="Capa_1" xmlns="http://www.w3.org/2000/svg" xmlns:xlink="http://www.w3.org/1999/xlink" x="0px" y="0px"
	 viewBox="0 0 512.001 512.001" style="enable-background:new 0 0 512.001 512.001;" xml:space="preserve">
<g>
	<g>
		<path d="M507.606,152.656c-6.765-6.757-108.718-106.758-120.508-118.553c-5.856-5.859-15.354-5.861-21.212-0.005
			c-19.22,19.208-44.552,44.535-44.552,44.535c-0.44,0.44-0.839,0.913-1.218,1.399c-21.316-4.528-43.951-2.429-64.282,6.51
			c-17.762-7.748-37.709-10.509-56.988-7.769c-2.414,0.343-4.798,0.783-7.161,1.285c-0.884-1.14,2.604,2.404-45.792-45.963
			c-5.859-5.855-15.355-5.854-21.212,0.006C112.905,45.881,11.075,145.982,4.396,152.658c-5.859,5.854-5.863,15.363,0,21.221
			c10.427,10.42,22.043,20.668,39.184,37.483c-4.929,15.389-1.481,33.12,11.008,45.608l10.38,10.38l-10.621,10.621
			c-17.587,17.587-17.589,46.051,0,63.64c8.143,8.144,18.658,12.501,29.341,13.085c0.584,10.684,4.942,21.198,13.085,29.342
			c7.913,7.913,18.255,12.511,29.344,13.109c0.589,10.676,4.946,21.18,13.083,29.317c8.143,8.144,18.657,12.501,29.341,13.085
			c0.584,10.684,4.941,21.198,13.085,29.341c17.587,17.587,46.051,17.589,63.639,0l10.394-10.394l10.607,10.607
			c17.586,17.587,46.052,17.589,63.64,0c7.913-7.913,12.511-18.254,13.109-29.344c10.676-0.589,21.18-4.946,29.318-13.083
			c8.137-8.137,12.493-18.642,13.083-29.318c11.089-0.598,21.431-5.196,29.343-13.109c8.137-8.137,12.494-18.642,13.083-29.318
			c11.089-0.598,21.43-5.196,29.343-13.109c17.588-17.587,17.589-46.052,0-63.64l-10.606-10.606l10.607-10.608
			c12.499-12.498,15.93-30.233,11.01-45.602c17.183-16.814,28.959-27.047,39.407-37.489
			C513.465,168.022,513.468,158.514,507.606,152.656z M263.063,116.371c27.757-14.695,63.782-10.954,88.057,13.32l84.817,84.816
			c5.863,5.862,5.901,15.387,0.038,21.25l-10.607,10.607l-74.248-74.247c-29.311-29.312-76.753-29.315-106.067,0l-21.213,21.213
			c-5.863,5.862-15.35,5.863-21.213,0c-5.848-5.849-5.849-15.365,0-21.213C249.663,125.082,249.948,123.5,263.063,116.371z
			 M61.216,186.655c-9.922-9.648-17.89-17.039-24.745-23.508c23.277-22.936,75.915-74.712,98.77-97.281
			c8.439,8.436,16.979,16.972,23.386,23.378L61.216,186.655z M96.771,320.398c-5.849,5.849-15.365,5.849-21.214,0
			c-5.862-5.863-5.861-15.349,0.001-21.213l42.213-42.213c5.848-5.848,15.365-5.848,21.213,0c5.863,5.863,5.863,15.349,0,21.213
			L96.771,320.398z M139.199,362.825c-5.863,5.863-15.349,5.864-21.213,0.001c-5.849-5.849-5.849-15.365,0-21.214l42.213-42.213
			c5.85-5.849,15.366-5.847,21.213,0c5.849,5.849,5.849,15.365,0,21.213L139.199,362.825z M181.626,405.251
			c-5.849,5.848-15.365,5.847-21.213,0c-5.849-5.848-5.849-15.364-0.001-21.213l42.214-42.213c5.863-5.863,15.349-5.863,21.213,0
			c5.863,5.864,5.863,15.35,0,21.213L181.626,405.251z M266.266,405.467l-42.214,42.213c-5.863,5.861-15.349,5.861-21.212-0.002
			c-5.848-5.849-5.848-15.365,0-21.213l42.213-42.213c0.001-0.001,0.002-0.002,0.003-0.003c5.85-5.845,15.359-5.844,21.208,0.001
			c0.001,0.001,0.002,0.002,0.002,0.003l0.005,0.005C272.115,390.107,272.113,399.62,266.266,405.467z M308.692,447.892
			c-5.862,5.862-15.349,5.863-21.213,0l-10.607-10.607l10.607-10.607c3.718-3.718,6.64-7.934,8.782-12.431l12.431,12.431
			C314.555,432.542,314.556,442.029,308.692,447.892z M435.973,320.612c-5.863,5.862-15.35,5.863-21.213,0l-42.426-42.426
			c-5.857-5.858-15.355-5.858-21.213,0c-5.858,5.858-5.858,15.355,0,21.213l42.426,42.426c5.848,5.849,5.848,15.365,0,21.213
			c-5.863,5.862-15.35,5.863-21.213,0l-42.427-42.426c-5.857-5.858-15.355-5.858-21.213,0c-5.858,5.858-5.858,15.355,0,21.213
			l42.426,42.426c5.849,5.849,5.849,15.365,0,21.213c-5.848,5.849-15.364,5.849-21.214,0l-42.426-42.427
			c-8.137-8.137-18.642-12.494-29.317-13.083c-0.598-11.089-5.196-21.43-13.109-29.343c-7.913-7.913-18.254-12.511-29.343-13.109
			c-0.589-10.676-4.946-21.18-13.083-29.317c-7.913-7.913-18.254-12.511-29.343-13.109c-0.589-10.676-4.946-21.181-13.084-29.318
			c-17.546-17.544-46.094-17.544-63.639,0l-10.379,10.38l-10.38-10.38c-5.86-5.861-5.829-15.386,0.037-21.25l84.817-84.816
			c17.091-17.09,40.528-24.545,63.313-21.338c-0.042,0.042-0.086,0.083-0.128,0.125l-42.427,42.426
			c-17.545,17.545-17.544,46.094,0,63.64c17.587,17.587,46.051,17.589,63.641,0l21.213-21.213c17.587-17.587,46.052-17.589,63.641,0
			l106.067,106.068C441.836,305.263,441.835,314.749,435.973,320.612z M450.567,186.663l-97.415-97.419
			c6.41-6.408,14.949-14.944,23.39-23.382c23.339,23.007,75.677,74.377,98.953,97.27
			C468.543,169.643,460.492,177.045,450.567,186.663z"/>
	</g>
</g>
<g>
</g>
<g>
</g>
<g>
</g>
<g>
</g>
<g>
</g>
<g>
</g>
<g>
</g>
<g>
</g>
<g>
</g>
<g>
</g>
<g>
</g>
<g>
</g>
<g>
</g>
<g>
</g>
<g>
</g>
</svg>
