<svg height="512pt" viewBox="0 0 512 512" width="512pt" xmlns="http://www.w3.org/2000/svg"><path d="m301 435v62c0 8.398438-6.597656 15-15 15h-60c-8.402344 0-15-6.601562-15-15v-62zm0 0" fill="#d3f3db"/><path d="m256 435h45v62c0 8.398438-6.597656 15-15 15h-30zm0 0" fill="#a0deb0"/><path d="m421 165c0 62.398438-35.097656 118.800781-90 147v63h-150v-92.699219l-84-159c18.601562-70.800781 82.5-123.300781 159-123.300781 16.199219 0 32.101562 2.398438 46.800781 6.898438l114.597657 123.902343c2.402343 11.097657 3.601562 22.5 3.601562 34.199219zm0 0" fill="#fff35c"/><path d="m421 165c0 62.398438-35.097656 118.800781-90 147v63h-75v-375c16.199219 0 32.101562 2.398438 46.800781 6.898438l114.597657 123.902343c2.402343 11.097657 3.601562 22.5 3.601562 34.199219zm0 0" fill="#ffd236"/><path d="m181 375h150v60h-150zm0 0" fill="#d3f3db"/><g fill="#fff35c"><path d="m46 180h-31c-8.289062 0-15-6.710938-15-15s6.710938-15 15-15h31c8.289062 0 15 6.710938 15 15s-6.710938 15-15 15zm0 0"/><path d="m16.378906 245.066406c-3.472656-7.527344-.179687-16.433594 7.351563-19.890625l31-13.800781c7.558593-3.484375 16.4375-.175781 19.894531 7.355469 3.472656 7.527343.175781 16.433593-7.355469 19.890625l-31 13.800781c-7.511719 3.460937-16.441406.175781-19.890625-7.355469zm0 0"/><path d="m54.289062 118.417969-31-15c-7.410156-3.707031-10.414062-12.714844-6.707031-20.128907 3.722657-7.410156 12.730469-10.382812 20.128907-6.707031l31 15c7.410156 3.707031 10.414062 12.714844 6.707031 20.128907-3.691407 7.359374-12.648438 10.421874-20.128907 6.707031zm0 0"/></g><path d="m497 180h-31c-8.289062 0-15-6.710938-15-15s6.710938-15 15-15h31c8.289062 0 15 6.710938 15 15s-6.710938 15-15 15zm0 0" fill="#ffd236"/><path d="m475.730469 252.421875-31-13.800781c-7.53125-3.457032-10.824219-12.359375-7.355469-19.890625 3.441406-7.53125 12.277344-10.871094 19.894531-7.355469l31 13.800781c7.527344 3.457031 10.824219 12.363281 7.351563 19.890625-3.445313 7.523438-12.367188 10.820313-19.890625 7.355469zm0 0" fill="#ffd236"/><path d="m437.582031 111.710938c-3.707031-7.414063-.703125-16.421876 6.707031-20.128907l31-15c7.429688-3.675781 16.40625-.703125 20.128907 6.707031 3.707031 7.414063.703125 16.421876-6.707031 20.128907l-31 15c-7.488282 3.71875-16.441407.644531-20.128907-6.707031zm0 0" fill="#ffd236"/><path d="m256 375h75v60h-75zm0 0" fill="#a0deb0"/><path d="m417.398438 130.800781c-25.796876 15-35.097657 22.800781-38.097657 25.800781-9.902343 10.5-15.601562 27.300782-20.402343 42.300782-5.398438 15.898437-9.902344 28.796875-20.097657 35.097656-18.601562 11.699219-40.203125 13.5-55.800781-2.101562-10.5-10.496094-7.203125-26.398438-3.300781-44.699219 1.800781-8.398438 5.699219-26.398438 3-30.601563-1.5 0-8.101563 2.101563-12 3.601563-3.898438 1.5-9 3.601562-14.699219 4.5-9.300781 2.101562-20.101562 1.5-29.398438-7.800781-21.601562-21.597657-15.902343-80.398438 0-96.300782 9.898438-9.898437 21.296876-8.398437 29.398438-5.996094 1.800781.296876 3.300781.898438 4.800781 1.5 2.097657.597657 5.699219 1.5 7.199219 1.796876 3.902344-3.296876 17.398438-23.097657 34.800781-51 57.597657 17.101562 102 64.5 114.597657 123.902343zm0 0" fill="#ffd236"/><path d="m417.398438 130.800781c-25.796876 15-35.097657 22.800781-38.097657 25.800781-9.902343 10.5-15.601562 27.300782-20.402343 42.300782-5.398438 15.898437-9.902344 28.796875-20.097657 35.097656-18.601562 11.699219-40.203125 13.5-55.800781-2.101562-10.5-10.496094-7.203125-26.398438-3.300781-44.699219 1.800781-8.398438 5.699219-26.398438 3-30.601563-1.5 0-8.101563 2.101563-12 3.601563-3.898438 1.5-9 3.601562-14.699219 4.5v-110.097657c1.800781.296876 3.300781.898438 4.796875 1.5 2.101563.597657 5.699219 1.5 7.203125 1.796876 3.898438-3.296876 17.398438-23.097657 34.800781-51 57.597657 17.101562 102 64.5 114.597657 123.902343zm0 0" fill="#fdbf00"/><path d="m256.71875 309.464844c-20.40625-58.507813-23.070312-69.785156-23.410156-71.867188-.4375-2.664062.617187-6.429687 1.714844-10.414062 2.386718-8.597656 6.386718-22.984375-5.917969-35.289063-12.039063-12.039062-26.484375-7.441406-34.246094-4.980469-2.753906.878907-6.914063 2.257813-8.117187 1.730469-3.472657-1.4375-7.777344-6.972656-12.347657-12.847656-5.832031-7.484375-12.4375-15.980469-22.121093-22.96875-.429688-.300781-29.707032-17.835937-55.328126-29.40625-3.523437 13.433594-5.945312 21.707031-5.945312 41.578125 0 84.214844 64.015625 156.683594 150.21875 164.339844 4.855469.472656 9.953125-1.582032 13.171875-5.726563 3.117187-4.011719 3.996094-9.34375 2.328125-14.148437zm0 0" fill="#ffd236"/><path d="m361 375c0 8.398438-6.597656 15-15 15h-180c-8.402344 0-15-6.601562-15-15 0-8.402344 6.597656-15 15-15h180c8.402344 0 15 6.597656 15 15zm0 0" fill="#f2fde0"/><path d="m361 435c0 8.398438-6.597656 15-15 15h-180c-8.402344 0-15-6.601562-15-15 0-8.402344 6.597656-15 15-15h180c8.402344 0 15 6.597656 15 15zm0 0" fill="#f2fde0"/><path d="m361 435c0 8.398438-6.597656 15-15 15h-90v-30h90c8.402344 0 15 6.597656 15 15zm0 0" fill="#d3f3db"/><path d="m346 390h-90v-30h90c8.402344 0 15 6.597656 15 15 0 8.398438-6.597656 15-15 15zm0 0" fill="#d3f3db"/></svg>